<?xml version="1.0" encoding="utf-8"?><!-- Uploaded to: SVG Repo, www.svgrepo.com, Generator: SVG Repo Mixer Tools -->
<svg fill="#000000" width="800px" height="800px" viewBox="0 0 24 24" id="telescope" data-name="Flat Color" xmlns="http://www.w3.org/2000/svg" class="icon flat-color"><path id="secondary" d="M16,22a1,1,0,0,1-.95-.68L13,15.16,11,21.32a1,1,0,0,1-1.9-.64l3-9a1,1,0,0,1,1.9,0l3,9A1,1,0,0,1,16.32,22,1.25,1.25,0,0,1,16,22ZM9.86,11.64l-1-3.86A1,1,0,0,0,7.6,7.07L2.74,8.37a1,1,0,0,0-.61.47A1.05,1.05,0,0,0,2,9.6l1,3.86a1,1,0,0,0,1,.74,1.09,1.09,0,0,0,.26,0l4.86-1.3a1,1,0,0,0,.61-.47A1,1,0,0,0,9.86,11.64Z" style="fill: rgb(44, 169, 188);"></path><path id="primary" d="M21.71,9.5,20.15,3.71a1,1,0,0,0-.46-.61,1,1,0,0,0-.76-.1L8.3,5.85A2,2,0,0,0,6.89,8.3l1,3.86a2,2,0,0,0,1.93,1.48,1.91,1.91,0,0,0,.52-.07L21,10.73A1,1,0,0,0,21.71,9.5Z" style="fill: rgb(0, 0, 0);"></path><path id="secondary-2" data-name="secondary" d="M21,11.73A1,1,0,0,1,20,11L18,3.26a1,1,0,0,1,1.94-.52L22,10.47a1,1,0,0,1-.71,1.22A.82.82,0,0,1,21,11.73Z" style="fill: rgb(44, 169, 188);"></path></svg>